<?xml version="1.0" standalone="no"?>
<!DOCTYPE svg PUBLIC "-//W3C//DTD SVG 20010904//EN"
 "http://www.w3.org/TR/2001/REC-SVG-20010904/DTD/svg10.dtd">
<svg version="1.0" xmlns="http://www.w3.org/2000/svg"
 width="255.000000pt" height="255.000000pt" viewBox="0 0 255.000000 255.000000"
 preserveAspectRatio="xMidYMid meet">
<metadata>
Created by potrace 1.11, written by Peter Selinger 2001-2013
</metadata>
<g transform="translate(0.000000,255.000000) scale(0.100000,-0.100000)"
fill="#000000" stroke="none">
<path d="M1842 2523 c-132 -39 -217 -179 -263 -430 -39 -216 -35 -354 13 -466
43 -99 139 -134 280 -103 146 33 410 180 521 291 114 114 143 241 82 355 -76
141 -301 304 -483 351 -87 22 -81 22 -150 2z"/>
<path d="M1235 2325 c-342 -62 -641 -281 -794 -582 -24 -47 -30 -41 69 -64 30
-6 102 -31 160 -54 563 -226 643 -488 233 -761 -107 -71 -271 -155 -349 -179
-33 -10 -61 -20 -62 -21 -2 -1 11 -24 29 -50 47 -69 164 -189 239 -246 91 -69
266 -153 385 -185 90 -24 118 -27 275 -27 112 0 190 4 217 12 l42 12 -35 78
c-100 217 -146 559 -95 694 25 65 78 119 136 138 56 18 194 7 299 -24 107 -32
286 -116 386 -180 40 -26 74 -46 75 -44 8 8 56 190 66 252 27 161 -7 415 -76
571 l-25 57 -52 -45 c-113 -95 -314 -206 -466 -257 -117 -39 -223 -41 -291 -7
-62 32 -105 98 -127 194 -32 145 -3 453 60 633 14 41 27 80 28 85 5 16 -236
16 -327 0z"/>
<path d="M210 1621 c-109 -35 -165 -110 -196 -262 -30 -148 -5 -382 53 -497
84 -166 246 -196 492 -89 186 80 362 204 421 298 32 48 35 61 35 125 0 64 -3
77 -31 116 -67 93 -260 210 -464 279 -76 26 -114 33 -190 35 -52 2 -106 0
-120 -5z"/>
<path d="M1773 990 c-74 -17 -124 -75 -149 -170 -18 -73 -15 -138 16 -287 71
-342 213 -524 387 -498 150 22 400 216 478 372 24 47 30 71 30 123 0 78 -27
131 -103 202 -161 151 -521 292 -659 258z"/>
</g>
</svg>
